<svg width="22" height="22" viewBox="0 0 22 22" fill="none" xmlns="http://www.w3.org/2000/svg">
<path d="M4.72333 9.58857C6.40333 12.8902 9.11 15.5852 12.4117 17.2769L14.9783 14.7102C15.2933 14.3952 15.76 14.2902 16.1683 14.4302C17.475 14.8619 18.8867 15.0952 20.3333 15.0952C20.975 15.0952 21.5 15.6202 21.5 16.2619V20.3336C21.5 20.9752 20.975 21.5002 20.3333 21.5002C9.37833 21.5002 0.5 12.6219 0.5 1.66691C0.5 1.02524 1.025 0.500244 1.66667 0.500244H5.75C6.39167 0.500244 6.91667 1.02524 6.91667 1.66691C6.91667 3.12524 7.15 4.52524 7.58167 5.83191C7.71 6.24024 7.61667 6.69524 7.29 7.02191L4.72333 9.58857Z" fill="black"/>
</svg>
