<svg width="24" height="24" viewBox="0 0 24 24" fill="none" xmlns="http://www.w3.org/2000/svg">
<path d="M10.834 19.0002H13.1673V16.6669H10.834V19.0002ZM12.0007 0.333588C5.56065 0.333588 0.333984 5.56025 0.333984 12.0002C0.333984 18.4402 5.56065 23.6669 12.0007 23.6669C18.4407 23.6669 23.6673 18.4402 23.6673 12.0002C23.6673 5.56025 18.4407 0.333588 12.0007 0.333588ZM12.0007 21.3336C6.85565 21.3336 2.66732 17.1452 2.66732 12.0002C2.66732 6.85525 6.85565 2.66692 12.0007 2.66692C17.1457 2.66692 21.334 6.85525 21.334 12.0002C21.334 17.1452 17.1457 21.3336 12.0007 21.3336ZM12.0007 5.00025C9.42232 5.00025 7.33398 7.08859 7.33398 9.66692H9.66732C9.66732 8.38358 10.7173 7.33359 12.0007 7.33359C13.284 7.33359 14.334 8.38358 14.334 9.66692C14.334 12.0002 10.834 11.7086 10.834 15.5002H13.1673C13.1673 12.8752 16.6673 12.5836 16.6673 9.66692C16.6673 7.08859 14.579 5.00025 12.0007 5.00025Z" fill="black"/>
</svg>
